<svg xmlns="http://www.w3.org/2000/svg" width="372" height="372" fill="none"><path fill="url(#a)" fill-rule="evenodd" d="M181.967.043a187.876 187.876 0 0 1 8.066 0l-3.972 184.958L186 185l-.061.001L181.967.043Zm32.219 2.092c2.688.41 5.36.878 8.013 1.403l-35.903 181.483-.029-.005L214.186 2.135Zm-64.385 1.403c2.653-.525 5.325-.993 8.013-1.403l27.919 182.881-.019.003-.01.002L149.801 3.538Zm95.992 6.308c2.578.875 5.129 1.804 7.654 2.787l-67.096 172.403-.013-.004L245.793 9.846Zm-127.24 2.787a184.61 184.61 0 0 1 7.654-2.787l59.455 175.186-.013.004-67.096-172.403Zm156.99 10.32a185.658 185.658 0 0 1 7.028 4.066l-96.12 158.069-.034-.02 89.126-162.116ZM89.429 27.018a185.872 185.872 0 0 1 7.028-4.067l89.126 162.116-.034.02-96.12-158.07Zm213.039 13.955a187.329 187.329 0 0 1 6.198 5.206L186.633 185.223a1.6 1.6 0 0 0-.05-.042L302.468 40.974ZM63.334 46.18a186.49 186.49 0 0 1 6.198-5.206l115.885 144.207a1.6 1.6 0 0 0-.05.042L63.334 46.18ZM325.82 63.334a187.342 187.342 0 0 1 5.206 6.198L186.819 185.417a1.6 1.6 0 0 0-.042-.05L325.82 63.334ZM40.974 69.532a186.615 186.615 0 0 1 5.206-6.198l139.043 122.033a1.6 1.6 0 0 0-.042.05L40.974 69.532ZM344.982 89.43a187.103 187.103 0 0 1 4.066 7.028l-162.116 89.126-.02-.034 158.07-96.12Zm-322.03 7.028a185.654 185.654 0 0 1 4.066-7.028l158.07 96.12-.02.034L22.952 96.457Zm336.415 22.096a184.396 184.396 0 0 1 2.787 7.654l-175.186 59.455-.004-.013 172.403-67.096ZM9.846 126.207a185.153 185.153 0 0 1 2.787-7.654l172.403 67.096a.03.03 0 0 0-.002.008l-.002.005L9.846 126.207Zm358.616 23.594c.525 2.653.993 5.325 1.403 8.013l-182.881 27.919-.005-.029 181.483-35.903ZM2.135 157.814c.41-2.688.878-5.36 1.403-8.013l181.483 35.903-.005.029L2.135 157.814Zm369.822 24.153a186.786 186.786 0 0 1 0 8.066l-184.958-3.972L187 186v-.032l-.001-.029 184.958-3.972ZM0 186c0-1.346.014-2.69.043-4.033l184.958 3.972L185 186l.001.061L.043 190.033A187.876 187.876 0 0 1 0 186Zm3.538 36.199a185.627 185.627 0 0 1-1.403-8.013l182.881-27.919.002.015.003.014L3.538 222.199Zm366.327-8.013c-.41 2.688-.878 5.36-1.403 8.013l-181.483-35.903.005-.029 182.881 27.919ZM12.633 253.447a184.61 184.61 0 0 1-2.787-7.654l175.186-59.455.001.004.003.009-172.403 67.096Zm349.521-7.654a184.923 184.923 0 0 1-2.787 7.654l-172.403-67.096.004-.013 175.186 59.455ZM27.019 282.571a185.794 185.794 0 0 1-4.067-7.028l162.116-89.126.02.034-158.07 96.12Zm322.029-7.028a187.023 187.023 0 0 1-4.066 7.028l-158.07-96.12.02-.034 162.116 89.126ZM46.18 308.666a187.203 187.203 0 0 1-5.206-6.198l144.207-115.885a1.6 1.6 0 0 0 .042.05L46.18 308.666Zm284.846-6.198a186.83 186.83 0 0 1-5.206 6.198L186.777 186.633a1.6 1.6 0 0 0 .042-.05l144.207 115.885ZM69.532 331.026a186.12 186.12 0 0 1-6.198-5.206l122.033-139.043a1.6 1.6 0 0 0 .05.042L69.532 331.026Zm239.134-5.206a188.06 188.06 0 0 1-6.198 5.206L186.583 186.819l.026-.022a.424.424 0 0 0 .024-.02L308.666 325.82ZM96.457 349.048a187.019 187.019 0 0 1-7.028-4.066l96.12-158.07.034.02-89.126 162.116Zm186.114-4.066a187.023 187.023 0 0 1-7.028 4.066l-89.126-162.116.016-.01a.162.162 0 0 0 .018-.01l96.12 158.07Zm-156.364 17.172a184.923 184.923 0 0 1-7.654-2.787l67.096-172.403.013.004-59.455 175.186Zm127.24-2.787a184.396 184.396 0 0 1-7.654 2.787l-59.455-175.186.013-.004 67.096 172.403Zm-95.633 10.498c-2.688-.41-5.36-.878-8.013-1.403l35.903-181.483.029.005-27.919 182.881Zm64.385-1.403c-2.653.525-5.325.993-8.013 1.403l-27.919-182.881.017-.003.012-.002 35.903 181.483ZM186 372c-1.346 0-2.69-.014-4.033-.043l3.972-184.958.061.001.061-.001 3.972 184.958c-1.343.029-2.687.043-4.033.043Z" clip-rule="evenodd"/><defs><radialGradient id="a" cx="0" cy="0" r="1" gradientTransform="matrix(0 133.5 -181.411 0 186 186)" gradientUnits="userSpaceOnUse"><stop offset=".438" stop-color="#fbfbfb"/><stop offset="1" stop-color="#fbfbfb" stop-opacity="0"/></radialGradient></defs></svg>