<svg width="72" height="34" viewBox="0 0 72 34" fill="none" xmlns="http://www.w3.org/2000/svg">
<mask id="mask0_1_64" style="mask-type:luminance" maskUnits="userSpaceOnUse" x="0" y="5" width="59" height="29">
<path d="M0 5.0351H58.1144V33.8085H0V5.0351Z" fill="white"/>
</mask>
<g mask="url(#mask0_1_64)">
<path d="M51.4133 13.1132V20.1483H48.8656V15.2137H46.4128V20.1483H43.866V13.1132H51.4133Z" fill="white"/>
<path fill-rule="evenodd" clip-rule="evenodd" d="M38.6347 20.4001C40.9144 20.4001 42.6076 19.0216 42.6076 16.9311C42.6076 14.9079 41.3584 13.5952 39.2703 13.5952C38.3074 13.5952 37.5123 13.9288 36.9132 14.506C37.0563 13.3137 38.0785 12.4424 39.2056 12.4424L41.4213 12.4379L42.5283 10.3501C42.5283 10.3501 40.0718 10.4058 38.9293 10.4058C36.3205 10.4508 34.5579 12.7886 34.5579 15.63C34.5579 18.9389 36.2776 20.4001 38.6347 20.4001ZM38.6484 15.4439C39.4946 15.4439 40.0818 15.9923 40.0818 16.9311C40.0818 17.7754 39.5603 18.4704 38.6484 18.4731C37.7758 18.4731 37.1895 17.8284 37.1895 16.9446C37.1895 16.0067 37.7758 15.4439 38.6484 15.4439Z" fill="white"/>
<path d="M32.4844 17.7934C32.4844 17.7934 31.8826 18.1351 30.9844 18.1998C29.9513 18.2295 29.0312 17.5866 29.0312 16.4437C29.0312 15.3288 29.8428 14.6904 30.958 14.6904C31.6418 14.6904 32.5464 15.157 32.5464 15.157C32.5464 15.157 33.2084 13.9593 33.5512 13.3605C32.923 12.8911 32.0868 12.634 31.1148 12.634C28.6601 12.634 26.7589 14.212 26.7589 16.4294C26.7589 18.6755 28.5461 20.2167 31.1148 20.1699C31.8324 20.1429 32.8236 19.8947 33.4272 19.5135L32.4844 17.7934Z" fill="white"/>
<path d="M0 11.2978L3.53339 17.5263V21.3253L0.00455845 27.5413L0 11.2978Z" fill="#5B57A2"/>
<path d="M13.5682 15.2604L16.8782 13.2589L23.655 13.2526L13.5673 19.3463L13.5682 15.2604Z" fill="#D90751"/>
<path d="M13.5491 11.2618L13.5673 19.5072L10.0257 17.3618V5.0351L13.5491 11.2618Z" fill="#FAB718"/>
<path d="M23.655 13.2526L16.8782 13.2589L13.5491 11.2609L10.0257 5.0351L23.655 13.2526Z" fill="#ED6F26"/>
<path d="M13.5682 27.5763V23.575L10.0257 21.4701L10.0275 33.8085L13.5682 27.5763Z" fill="#63B22F"/>
<path d="M16.87 25.5928L3.53339 17.5263L0 11.2978L23.6404 25.5856L16.87 25.5928Z" fill="#1487C9"/>
<path d="M10.0275 33.8084L13.5673 27.5754L16.87 25.5927L23.6404 25.5847L10.0275 33.8084Z" fill="#017F36"/>
<path d="M0.00462341 27.5412L10.0549 21.4701L6.67566 19.4254L3.53345 21.3253L0.00462341 27.5412Z" fill="#984995"/>
<path d="M29.0312 24.8824C28.9517 24.9812 28.8473 25.0578 28.7285 25.1045C28.474 25.2026 28.1921 25.2061 27.9352 25.1144C27.8211 25.074 27.7169 25.0103 27.6295 24.9273C27.5421 24.8444 27.4735 24.7442 27.4282 24.6333C27.3789 24.5122 27.3541 24.3827 27.3553 24.2521C27.3539 24.0081 27.4479 23.773 27.6179 23.5957C27.6999 23.5121 27.7975 23.4482 27.9078 23.3979C28.0209 23.3502 28.1431 23.3242 28.278 23.3242C28.4239 23.3242 28.5589 23.3421 28.682 23.3781C28.7998 23.4115 28.9072 23.4733 28.9948 23.5579L28.8452 23.807C28.773 23.7425 28.6879 23.6935 28.5954 23.6631C28.5075 23.6354 28.4159 23.6214 28.3236 23.6218C28.1609 23.6212 28.0044 23.6835 27.8878 23.7953C27.8268 23.8554 27.7788 23.927 27.7465 24.0057C27.7142 24.0845 27.6984 24.1689 27.6999 24.2539C27.6986 24.3397 27.7151 24.4249 27.7483 24.5042C27.7816 24.5835 27.8309 24.6553 27.8932 24.7152C27.9532 24.7715 28.0247 24.8144 28.103 24.8411C28.1823 24.8707 28.2671 24.8851 28.3565 24.8851C28.459 24.8863 28.5604 24.8642 28.6528 24.8204C28.7379 24.7799 28.8143 24.7237 28.878 24.6549L29.0312 24.8824ZM29.4525 25.1378V23.3628H29.7762V24.6846L30.8276 23.3628H31.1513V25.1387H30.8276V23.8151L29.7762 25.1387L29.4525 25.1378ZM33.2932 24.8824C33.2137 24.9813 33.1093 25.0578 32.9904 25.1045C32.736 25.2027 32.454 25.2062 32.1971 25.1144C32.083 25.074 31.9789 25.0102 31.8915 24.9273C31.8042 24.8444 31.7355 24.7442 31.6902 24.6333C31.6409 24.5122 31.6161 24.3827 31.6172 24.2521C31.6158 24.0081 31.7099 23.773 31.8798 23.5957C31.9619 23.5121 32.0595 23.4482 32.1698 23.3979C32.2866 23.3472 32.4133 23.322 32.5409 23.3242C32.6859 23.3242 32.8208 23.3421 32.9439 23.3781C33.0617 23.4115 33.1692 23.4733 33.2567 23.5579L33.1072 23.807C33.0352 23.7425 32.9505 23.6935 32.8582 23.6631C32.7701 23.6353 32.6781 23.6214 32.5856 23.6218C32.4632 23.6208 32.3433 23.6558 32.2412 23.7222C32.1391 23.7887 32.0593 23.8836 32.012 23.9949C31.9771 24.0768 31.96 24.1651 31.9619 24.2539C31.9607 24.3398 31.9774 24.425 32.0108 24.5043C32.0442 24.5836 32.0936 24.6554 32.1561 24.7152C32.2158 24.7713 32.287 24.8143 32.3649 24.8411C32.4463 24.8696 32.532 24.8845 32.6184 24.8851C32.7209 24.8862 32.8223 24.864 32.9148 24.8204C32.9998 24.7799 33.0763 24.7237 33.14 24.6549L33.2932 24.8824ZM33.4591 23.3628H35.1187V23.6775H34.4512V25.1378H34.1284V23.6775H33.461V23.3628H33.4591Z" fill="white"/>
<path fill-rule="evenodd" clip-rule="evenodd" d="M36.6287 25.1207C36.7463 25.0855 36.8546 25.0254 36.946 24.9445L36.8475 24.6972C36.7778 24.7548 36.6981 24.7996 36.6123 24.8294C36.5089 24.8665 36.3995 24.8848 36.2895 24.8833C36.1299 24.8895 35.9733 24.8398 35.8472 24.7431C35.7889 24.6945 35.7416 24.6344 35.7081 24.5668C35.6747 24.4991 35.6559 24.4253 35.653 24.3501H37.0527C37.0676 24.2801 37.0743 24.2086 37.0728 24.137C37.0745 24.0274 37.0534 23.9186 37.0109 23.8174C36.9684 23.7161 36.9054 23.6244 36.8257 23.5481C36.6606 23.4027 36.4469 23.3227 36.2257 23.3233C36.0884 23.3212 35.952 23.3459 35.8244 23.3961C35.7149 23.4405 35.616 23.5072 35.5343 23.5918C35.4526 23.6764 35.3899 23.777 35.3503 23.8871C35.3073 24.0034 35.2857 24.1265 35.2865 24.2503C35.2865 24.3906 35.3111 24.5174 35.3567 24.6316C35.4009 24.7426 35.4686 24.8429 35.5555 24.9259C35.6423 25.0089 35.7461 25.0725 35.86 25.1126C36.109 25.1968 36.3787 25.1999 36.6296 25.1216V25.1207H36.6287ZM35.8108 23.754C35.9111 23.6641 36.0433 23.62 36.212 23.62C36.3688 23.62 36.4956 23.6623 36.5886 23.7459C36.6355 23.7911 36.6729 23.845 36.6984 23.9046C36.7239 23.9642 36.7371 24.0283 36.7372 24.093H35.6321C35.6479 23.9623 35.7114 23.8418 35.8108 23.754Z" fill="white"/>
<path d="M37.5132 23.3628H37.8077L38.508 24.2431L39.1709 23.3619H39.4572V25.1387H39.1335V23.8439L38.5034 24.6675H38.4907L37.8369 23.8439V25.1387H37.5132V23.3628Z" fill="white"/>
<path fill-rule="evenodd" clip-rule="evenodd" d="M40.3363 23.3691C40.2383 23.3945 40.1446 23.4339 40.0581 23.486L40.1439 23.7378C40.2177 23.7018 40.2916 23.6721 40.3654 23.6461C40.4559 23.618 40.5506 23.6053 40.6454 23.6083C40.72 23.605 40.7944 23.6192 40.8624 23.6497C40.9143 23.6751 40.9577 23.7147 40.9873 23.7639C41.0179 23.8187 41.0374 23.8789 41.0448 23.941C41.0539 24.0111 41.0584 24.0867 41.0584 24.1685C40.9923 24.1231 40.9171 24.0924 40.8378 24.0786C40.7609 24.0637 40.6827 24.0559 40.6043 24.0552C40.5124 24.0554 40.421 24.0682 40.3326 24.093C40.2529 24.1137 40.1784 24.1505 40.1138 24.2009C40.05 24.2507 39.999 24.3145 39.9648 24.3873C39.9306 24.4601 39.9142 24.5397 39.9168 24.6199C39.9168 24.7934 39.9679 24.9292 40.07 25.0245C40.1807 25.1234 40.3265 25.1752 40.4758 25.1684C40.6021 25.1742 40.7278 25.1475 40.8405 25.091C40.9247 25.0458 40.999 24.9847 41.0593 24.9112V25.1405H41.3612V24.0507C41.3612 23.8196 41.3101 23.6398 41.2062 23.5139C41.104 23.388 40.9217 23.3251 40.6636 23.3251C40.5487 23.3251 40.4402 23.3404 40.3363 23.3691ZM40.877 24.8078C40.7911 24.8623 40.6899 24.8887 40.5879 24.8833C40.5 24.8884 40.4133 24.8612 40.3445 24.8069C40.3161 24.7812 40.2938 24.7497 40.279 24.7146C40.2642 24.6795 40.2573 24.6417 40.2587 24.6037C40.2587 24.5542 40.2688 24.512 40.2916 24.4742C40.314 24.4377 40.3442 24.4064 40.38 24.3825C40.4178 24.3575 40.4598 24.3392 40.504 24.3285C40.598 24.3054 40.6958 24.3023 40.7911 24.3193C40.8864 24.3364 40.9769 24.3732 41.0566 24.4274V24.6531C41.0037 24.7118 40.9433 24.7643 40.877 24.8078ZM44.2161 22.7379C44.2893 22.7026 44.3526 22.6501 44.4003 22.5851L44.2243 22.3351C44.1863 22.39 44.1331 22.433 44.0712 22.4592C44.0102 22.4825 43.9469 22.4997 43.8824 22.5104L43.8213 22.5212L43.649 22.5509C43.5503 22.569 43.4542 22.5986 43.3627 22.639C43.2275 22.6937 43.1076 22.7797 43.0134 22.8899C42.925 22.996 42.8557 23.1147 42.8083 23.2468C42.7605 23.3807 42.7284 23.5194 42.7125 23.6605C42.6961 23.8043 42.6879 23.941 42.6879 24.0732C42.6879 24.2431 42.7098 24.3969 42.7554 24.5335C42.801 24.672 42.8639 24.7871 42.9469 24.8806C43.0299 24.9758 43.1337 25.0511 43.2505 25.1009C43.369 25.1522 43.5022 25.1783 43.6517 25.1783C43.7885 25.1783 43.9161 25.1522 44.0301 25.1045C44.1965 25.0348 44.3382 24.9179 44.4372 24.7687C44.5362 24.6196 44.5881 24.4448 44.5864 24.2665C44.5878 24.143 44.5678 24.0201 44.5271 23.9032C44.493 23.8001 44.4363 23.7058 44.3609 23.6268C44.2856 23.5478 44.1935 23.4863 44.0912 23.4465C43.9068 23.3745 43.704 23.3625 43.5122 23.4123C43.3712 23.4522 43.2427 23.5264 43.1383 23.6281C43.089 23.6774 43.0488 23.7349 43.0198 23.798H43.0107C43.0171 23.7162 43.0271 23.6326 43.0453 23.5463C43.0636 23.4608 43.0909 23.379 43.1256 23.3008C43.1598 23.2242 43.2053 23.153 43.2605 23.0895C43.3197 23.0253 43.3921 22.9744 43.473 22.9402C43.5624 22.898 43.6563 22.8683 43.7538 22.8503L43.8177 22.8386C43.8789 22.8279 43.94 22.8166 44.0009 22.8044C44.0794 22.7883 44.1505 22.7676 44.2161 22.7379ZM43.0782 24.4445C43.0466 24.3435 43.0315 24.2382 43.0335 24.1325C43.047 24.0722 43.0717 24.0149 43.1064 23.9635C43.1427 23.9085 43.188 23.8599 43.2405 23.8196C43.3607 23.7269 43.5092 23.6772 43.6617 23.6784C43.8523 23.6784 43.9955 23.736 44.0958 23.8493C44.1961 23.9653 44.2444 24.1091 44.2444 24.2827C44.2447 24.3633 44.2296 24.4432 44.1997 24.5183C44.1722 24.5888 44.1305 24.6532 44.0773 24.7075C44.024 24.7619 43.9602 24.8052 43.8897 24.8348C43.8126 24.8678 43.7294 24.8843 43.6453 24.8833C43.5608 24.8844 43.4771 24.8667 43.4005 24.8313C43.3239 24.796 43.2564 24.744 43.2031 24.6792C43.1477 24.6089 43.1054 24.5294 43.0782 24.4445ZM47.0666 23.3628H46.7429V25.1387H47.0666V23.3628ZM45.0532 23.3628H45.376V23.8951H45.6751C45.8164 23.8951 45.9304 23.9131 46.0225 23.9473C46.1056 23.9758 46.1813 24.0222 46.2441 24.0831C46.2988 24.1388 46.338 24.2045 46.3608 24.2782C46.3837 24.3528 46.3954 24.4304 46.3954 24.5084C46.3956 24.587 46.3824 24.6651 46.3562 24.7395C46.3306 24.8151 46.2879 24.8839 46.2313 24.9409C46.1661 25.0059 46.0865 25.0551 45.9988 25.0847C45.9003 25.1207 45.7818 25.1405 45.6386 25.1405H45.0505V23.3628H45.0532ZM45.376 24.1928V24.8429H45.6113C45.7736 24.8429 45.8876 24.8159 45.9532 24.7592C46.0189 24.7035 46.0517 24.6244 46.0517 24.5183C46.0517 24.4104 46.017 24.3285 45.9514 24.2728C45.8839 24.2161 45.7708 24.1883 45.6158 24.1883H45.376V24.1928Z" fill="white"/>
<path d="M49.2048 24.8824C49.1253 24.9813 49.0209 25.0578 48.9021 25.1045C48.6476 25.2026 48.3657 25.2061 48.1088 25.1144C47.9947 25.0738 47.8905 25.01 47.803 24.9271C47.7155 24.8442 47.6466 24.7442 47.6009 24.6333C47.552 24.5121 47.5276 24.3826 47.5289 24.2521C47.5271 24.0081 47.6212 23.7728 47.7915 23.5957C47.8735 23.5121 47.9711 23.4482 48.0814 23.3979C48.198 23.3472 48.3243 23.3221 48.4516 23.3242C48.5975 23.3242 48.7325 23.3421 48.8556 23.3781C48.9734 23.4115 49.0808 23.4733 49.1683 23.5579L49.0188 23.807C48.9465 23.7425 48.8615 23.6935 48.769 23.6631C48.6811 23.6354 48.5894 23.6214 48.4972 23.6218C48.4138 23.6218 48.3312 23.6382 48.2544 23.6702C48.1775 23.7021 48.1079 23.7489 48.0497 23.8079C47.9914 23.8668 47.9458 23.9366 47.9154 24.0132C47.885 24.0898 47.8704 24.1717 47.8726 24.2539C47.8714 24.3398 47.888 24.425 47.9214 24.5043C47.9548 24.5836 48.0043 24.6554 48.0668 24.7152C48.1268 24.7715 48.1983 24.8144 48.2766 24.8411C48.3579 24.8699 48.4436 24.8848 48.5301 24.8851C48.6326 24.8861 48.7339 24.864 48.8264 24.8204C48.9115 24.7799 48.9879 24.7237 49.0516 24.6549L49.2048 24.8824ZM49.3708 23.3628H51.0303V23.6775H50.3629V25.1378H50.0401V23.6775H49.3726V23.3628H49.3708Z" fill="white"/>
<path fill-rule="evenodd" clip-rule="evenodd" d="M51.7051 23.3628H51.3823V25.9281H51.706V25.0559C51.7707 25.0991 51.8492 25.1279 51.9385 25.1486C52.0288 25.1683 52.1227 25.1782 52.2194 25.1782C52.347 25.1814 52.4739 25.1585 52.5922 25.1112C52.7104 25.0639 52.8176 24.993 52.9069 24.9031C52.9912 24.8161 53.0563 24.713 53.0984 24.6001C53.144 24.4823 53.1668 24.3564 53.1668 24.2224C53.1676 24.0989 53.1473 23.976 53.1066 23.8592C53.0703 23.7549 53.0136 23.6587 52.9397 23.5759C52.8668 23.4954 52.7764 23.4321 52.6753 23.3907C52.5648 23.3437 52.4455 23.3204 52.3251 23.3224C52.2022 23.3218 52.0805 23.3462 51.9677 23.3943C51.8673 23.4327 51.7774 23.4937 51.7051 23.5723V23.3628ZM51.9303 23.6919C52.0231 23.6438 52.1264 23.6191 52.2312 23.62C52.3181 23.6184 52.4045 23.6333 52.4856 23.664C52.5586 23.6937 52.6206 23.736 52.6716 23.7917C52.7238 23.8481 52.763 23.915 52.7865 23.9877C52.8132 24.0675 52.8262 24.1511 52.8248 24.235C52.8249 24.3239 52.8095 24.4121 52.7792 24.4958C52.7525 24.5713 52.7098 24.6404 52.654 24.6986C52.5982 24.7567 52.5306 24.8025 52.4555 24.833C52.3725 24.8674 52.283 24.8846 52.1929 24.8833C52.0199 24.8897 51.8493 24.8415 51.706 24.7457V23.8654C51.7686 23.7938 51.8448 23.7348 51.9303 23.6919ZM55.6461 23.3628H55.3233V25.1387H55.6461V23.3628ZM53.6309 23.3628H53.9546V23.8951H54.2528C54.3941 23.8951 54.5081 23.9131 54.6011 23.9473C54.6838 23.9757 54.7592 24.0217 54.8218 24.0821C54.8765 24.1388 54.9157 24.2044 54.9385 24.2782C54.9615 24.3525 54.9731 24.4298 54.9731 24.5075C54.9738 24.5864 54.9608 24.6648 54.9348 24.7394C54.9093 24.8151 54.8665 24.884 54.8099 24.9409C54.7445 25.006 54.6645 25.0553 54.5765 25.0847C54.478 25.1207 54.3595 25.1405 54.2163 25.1405H53.6291V23.3628H53.6309ZM53.9564 24.1927V24.8428H54.1917C54.3531 24.8428 54.468 24.8159 54.5336 24.7592C54.5993 24.7035 54.6321 24.6243 54.6321 24.5182C54.6348 24.4726 54.6272 24.4269 54.6098 24.3844C54.5925 24.342 54.5658 24.3039 54.5318 24.2728C54.4634 24.2161 54.3513 24.1883 54.1962 24.1883H53.9564V24.1927Z" fill="white"/>
<path d="M57.1971 24.2188L57.8883 25.1387H57.4916L56.9573 24.4194L56.4157 25.1387H56.0391L56.7266 24.2341L56.0792 23.3619H56.4768L56.9692 24.0327L57.4707 23.3628H57.8482L57.1971 24.2188ZM28.7923 27.3327H27.7993V28.8136H27.4765V27.0377H29.1151V28.8136H28.7923V27.3327ZM30.9507 27.3533H30.3124L30.2914 27.6528C30.2773 27.8589 30.2453 28.0635 30.1956 28.2642C30.1648 28.3923 30.1114 28.514 30.0379 28.6239C29.9859 28.7012 29.9106 28.7606 29.8227 28.7938C29.7383 28.8241 29.649 28.839 29.5592 28.8379L29.5346 28.5304C29.5766 28.5311 29.6182 28.5218 29.6558 28.5034C29.7113 28.4736 29.7571 28.4291 29.7881 28.3748C29.8402 28.2847 29.8795 28.1878 29.9048 28.0871C29.945 27.925 29.9685 27.7593 29.975 27.5925L30.0078 27.0395H31.2744V28.8154H30.9507V27.3533Z" fill="white"/>
<path fill-rule="evenodd" clip-rule="evenodd" d="M32.1461 27.0422C32.0412 27.0692 31.9473 27.1097 31.868 27.1591L31.9537 27.4109C32.0266 27.3749 32.1014 27.3453 32.1743 27.3192C32.2652 27.2912 32.3601 27.2784 32.4552 27.2814C32.5446 27.2814 32.6166 27.2949 32.6713 27.3228C32.7269 27.3497 32.768 27.3884 32.7971 27.437C32.8245 27.4846 32.8427 27.5449 32.8537 27.6141C32.8637 27.6842 32.8683 27.7598 32.8683 27.8416C32.8022 27.7961 32.7269 27.7655 32.6476 27.7517C32.5707 27.7368 32.4925 27.729 32.4142 27.7283C32.3175 27.7283 32.2272 27.7418 32.1415 27.7661C32.0618 27.7868 31.9873 27.8235 31.9227 27.874C31.8592 27.9239 31.8084 27.9878 31.7743 28.0606C31.7403 28.1333 31.724 28.2129 31.7266 28.293C31.7266 28.4665 31.7777 28.6023 31.8798 28.6976C31.982 28.7938 32.1169 28.8415 32.2847 28.8415C32.4111 28.8471 32.5368 28.8201 32.6494 28.7632C32.7336 28.7181 32.808 28.6569 32.8683 28.5834V28.8136H33.171V27.7238C33.171 27.4927 33.1199 27.3129 33.016 27.187C32.9129 27.0611 32.7306 26.9982 32.4734 26.9982C32.3625 26.998 32.2521 27.0125 32.1452 27.0413L32.1461 27.0422ZM32.6886 28.48C32.6029 28.535 32.5017 28.5618 32.3996 28.5564C32.3116 28.5619 32.2247 28.5346 32.1561 28.48C32.1278 28.4543 32.1054 28.4228 32.0906 28.3877C32.0758 28.3526 32.0689 28.3148 32.0704 28.2768C32.0689 28.2315 32.0802 28.1866 32.1032 28.1473C32.1253 28.1108 32.1552 28.0795 32.1908 28.0556C32.2288 28.0304 32.2711 28.0121 32.3157 28.0016C32.4096 27.9786 32.5075 27.9755 32.6027 27.9926C32.698 28.0096 32.7885 28.0464 32.8683 28.1006V28.3262C32.8153 28.3849 32.755 28.4366 32.6886 28.48Z" fill="white"/>
<path d="M33.4883 27.0377H35.1479V27.3524H34.4804V28.8136H34.1576V27.3524H33.4901V27.0377H33.4883Z" fill="white"/>
<path fill-rule="evenodd" clip-rule="evenodd" d="M36.6579 28.7956C36.7754 28.7607 36.8837 28.7009 36.9752 28.6203L36.8767 28.3721C36.807 28.4298 36.7273 28.4745 36.6415 28.5043C36.5378 28.5415 36.4281 28.5598 36.3178 28.5582C36.1582 28.5644 36.0015 28.5147 35.8755 28.418C35.8171 28.3695 35.7697 28.3094 35.7362 28.2418C35.7028 28.1741 35.6841 28.1003 35.6813 28.025H37.081C37.0959 27.955 37.1029 27.8835 37.1019 27.8119C37.1035 27.7023 37.0823 27.5934 37.0397 27.4922C36.997 27.3909 36.9338 27.2993 36.8539 27.223C36.7761 27.1505 36.6843 27.0942 36.584 27.0575C36.347 26.974 36.0873 26.9788 35.8536 27.071C35.7443 27.1158 35.6457 27.1826 35.564 27.2671C35.4824 27.3517 35.4195 27.4521 35.3795 27.562C35.3357 27.6781 35.3141 27.8013 35.3156 27.9252C35.3156 28.0655 35.3403 28.1932 35.3849 28.3065C35.429 28.4175 35.4967 28.518 35.5835 28.601C35.6704 28.684 35.7743 28.7476 35.8883 28.7875C36.1373 28.8716 36.4071 28.8745 36.6579 28.7956ZM35.8372 27.4271C35.9375 27.3372 36.0707 27.2931 36.2384 27.2931C36.398 27.2931 36.5229 27.3372 36.615 27.419C36.7094 27.5107 36.7632 27.6354 36.7646 27.7661H35.6594C35.6751 27.6356 35.7382 27.5151 35.8372 27.4271ZM37.2597 27.0377H37.6682L38.2928 27.8937L37.6253 28.8136H37.2287L37.9281 27.8937L37.2597 27.0377ZM38.3721 27.0377H38.6958V28.8136H38.3721V27.0377ZM39.8521 28.8136L39.1399 27.8937L39.8046 27.0377H39.4034L38.7752 27.8937L39.4499 28.8136H39.8511H39.8521ZM41.3292 28.7956C41.4464 28.7606 41.5544 28.7007 41.6457 28.6203L41.5481 28.3721C41.4784 28.4297 41.3987 28.4745 41.3128 28.5043C41.2091 28.5415 41.0995 28.5597 40.9891 28.5582C40.8295 28.5644 40.6729 28.5147 40.5469 28.418C40.4886 28.3694 40.4412 28.3093 40.4078 28.2417C40.3743 28.174 40.3556 28.1002 40.3527 28.025H41.7523C41.7676 27.955 41.7746 27.8835 41.7733 27.8119C41.7751 27.7022 41.754 27.5933 41.7114 27.492C41.6687 27.3907 41.6054 27.2991 41.5253 27.223C41.4475 27.1505 41.3557 27.0942 41.2554 27.0575C41.0184 26.9741 40.7587 26.9789 40.525 27.071C40.4154 27.1154 40.3165 27.182 40.2348 27.2666C40.1531 27.3512 40.0904 27.4518 40.0508 27.562C40.0071 27.6781 39.9854 27.8013 39.987 27.9252C39.987 28.0655 40.0116 28.1932 40.0563 28.3065C40.1003 28.4175 40.1681 28.518 40.2549 28.601C40.3418 28.684 40.4457 28.7476 40.5597 28.7875C40.8086 28.8718 41.0785 28.8746 41.3292 28.7956ZM40.5086 27.4271C40.6089 27.3372 40.742 27.2931 40.9098 27.2931C41.0675 27.2931 41.1943 27.3372 41.2864 27.419C41.3334 27.4642 41.3707 27.5181 41.3962 27.5777C41.4218 27.6373 41.4349 27.7014 41.435 27.7661H40.3308C40.3464 27.6356 40.4096 27.5151 40.5086 27.4271ZM43.0845 26.4416C42.894 26.4416 42.79 26.3373 42.7745 26.1296H42.469C42.469 26.2096 42.4836 26.2815 42.5101 26.349C42.5365 26.4173 42.5757 26.4749 42.6268 26.5234C42.6827 26.5734 42.7476 26.6124 42.8183 26.6385C42.8949 26.6682 42.9824 26.6826 43.0827 26.6826C43.2432 26.6849 43.3987 26.6278 43.5186 26.5225C43.5706 26.4737 43.6117 26.4145 43.6389 26.349C43.668 26.2794 43.6826 26.2048 43.6818 26.1296H43.3791C43.3654 26.3373 43.2651 26.4416 43.0845 26.4416ZM42.211 27.0377V28.8136H42.5347L43.5861 27.4909V28.8127H43.9098V27.0377H43.5861L42.5347 28.3604V27.0377H42.211Z" fill="white"/>
</g>
<path d="M69.3001 0.0897217H54.7106C53.7035 0.0897217 52.887 0.894864 52.887 1.88806V4.58556C52.887 5.57875 53.7035 6.38389 54.7106 6.38389H69.3001C70.3073 6.38389 71.1238 5.57875 71.1238 4.58556V1.88806C71.1238 0.894864 70.3073 0.0897217 69.3001 0.0897217Z" fill="#9E9E9E"/>
<mask id="mask1_1_64" style="mask-type:luminance" maskUnits="userSpaceOnUse" x="53" y="0" width="7" height="6">
<path d="M53.7988 0.539246H59.2699V5.93425H53.7988V0.539246Z" fill="white"/>
</mask>
<g mask="url(#mask1_1_64)">
<path d="M58.358 1.43842H54.7107C54.6508 1.43818 54.5915 1.44966 54.5362 1.47219C54.4809 1.49472 54.4306 1.52786 54.3884 1.56967C54.3461 1.61149 54.3127 1.66117 54.2901 1.71581C54.2675 1.77045 54.2561 1.82898 54.2566 1.888L54.2547 4.58551C54.2547 4.83457 54.4572 5.03509 54.7107 5.03509H58.358C58.6115 5.03509 58.814 4.83457 58.814 4.58551V1.888C58.814 1.63893 58.6115 1.43842 58.358 1.43842ZM58.1301 4.58551H54.9386C54.8782 4.58551 54.8202 4.56182 54.7774 4.51967C54.7347 4.47751 54.7107 4.42033 54.7107 4.36071V3.23675H58.358V4.36071C58.358 4.42033 58.334 4.47751 58.2913 4.51967C58.2485 4.56182 58.1905 4.58551 58.1301 4.58551ZM58.358 2.33759H54.7107V1.888H58.358V2.33759Z" fill="white"/>
</g>
<mask id="mask2_1_64" style="mask-type:luminance" maskUnits="userSpaceOnUse" x="59" y="0" width="6" height="6">
<path d="M59.2698 0.539246H64.7408V5.93425H59.2698V0.539246Z" fill="white"/>
</mask>
<g mask="url(#mask2_1_64)">
<path d="M60.6695 3.20528L60.0357 3.8329C60.0149 3.85432 60.0033 3.88283 60.0033 3.91248C60.0033 3.94213 60.0149 3.97063 60.0357 3.99205L60.6695 4.61967C60.7406 4.69161 60.8637 4.63945 60.8637 4.54055V4.13592H62.2333C62.2937 4.13592 62.3517 4.11224 62.3945 4.07008C62.4372 4.02792 62.4612 3.97075 62.4612 3.91113C62.4612 3.85151 62.4372 3.79433 62.3945 3.75218C62.3517 3.71002 62.2937 3.68634 62.2333 3.68634H60.8637V3.28441C60.864 3.26209 60.8575 3.24019 60.845 3.22155C60.8326 3.20291 60.8147 3.18838 60.7938 3.17986C60.7729 3.17134 60.7498 3.1692 60.7277 3.17373C60.7055 3.17827 60.6852 3.18926 60.6695 3.20528ZM63.9767 2.48415L63.343 1.85653C63.2728 1.7846 63.1497 1.83675 63.1497 1.93566V2.33759H61.7773C61.7169 2.33759 61.6589 2.36127 61.6162 2.40343C61.5734 2.44558 61.5494 2.50276 61.5494 2.56238C61.5494 2.68646 61.6515 2.78717 61.7773 2.78717H63.1469V3.19C63.1469 3.2907 63.2709 3.34016 63.3412 3.26822L63.9749 2.6415C63.9856 2.63134 63.9941 2.61918 64 2.60574C64.0058 2.5923 64.009 2.57784 64.0091 2.5632C64.0093 2.54857 64.0065 2.53404 64.001 2.52047C63.9954 2.5069 63.9872 2.49456 63.9767 2.48415Z" fill="white"/>
</g>
<mask id="mask3_1_64" style="mask-type:luminance" maskUnits="userSpaceOnUse" x="64" y="0" width="7" height="6">
<path d="M64.741 0.539246H70.212V5.93425H64.741V0.539246Z" fill="white"/>
</mask>
<g mask="url(#mask3_1_64)">
<path d="M69.3002 1.43842H65.6528C65.593 1.43818 65.5337 1.44966 65.4783 1.47219C65.423 1.49472 65.3728 1.52786 65.3305 1.56967C65.2883 1.61149 65.2549 1.66117 65.2323 1.71581C65.2096 1.77045 65.1982 1.82898 65.1987 1.888L65.1969 4.58551C65.1969 4.83457 65.3993 5.03509 65.6528 5.03509H69.3002C69.5537 5.03509 69.7561 4.83457 69.7561 4.58551V1.888C69.7561 1.63893 69.5537 1.43842 69.3002 1.43842ZM69.0722 4.58551H65.8808C65.8203 4.58551 65.7623 4.56182 65.7196 4.51967C65.6768 4.47751 65.6528 4.42033 65.6528 4.36071V3.23675H69.3002V4.36071C69.3002 4.42033 69.2762 4.47751 69.2334 4.51967C69.1907 4.56182 69.1327 4.58551 69.0722 4.58551ZM69.3002 2.33759H65.6528V1.888H69.3002V2.33759Z" fill="white"/>
</g>
</svg>
