<svg width="92" height="45" viewBox="0 0 92 45" fill="none" xmlns="http://www.w3.org/2000/svg">
<path d="M79.8265 19.5876L78.187 23.5143C78.187 23.5692 78.1304 23.6241 78.1304 23.6781L78.0739 23.787L78.0174 23.679C78.0174 23.6241 77.9608 23.5692 77.9608 23.5143L76.3231 19.5876H74.1758L77.0016 26.3511L75.8143 28.9143H77.9617L81.9182 19.5876H79.8265ZM64.0023 19.9701C63.6066 19.6974 63.1543 19.5336 62.589 19.4787C61.6288 19.3707 60.7243 19.6974 60.1589 20.3517V19.5885H58.2377V26.3511H60.1589V22.8051C60.1589 21.9879 60.3285 21.8241 60.4416 21.6063C60.6677 21.2238 61.12 21.006 61.6288 21.0609C62.1376 21.0609 62.6455 21.2787 62.8717 21.6603C63.0413 21.933 63.0413 22.2606 63.0413 22.4793V26.3511H64.9634V22.2606C64.9634 21.1698 64.6233 20.4606 64.0023 19.9701ZM54.5648 19.6425C53.6037 19.3149 52.5861 19.3698 51.6259 19.8063C50.9484 20.079 50.4396 20.5695 50.0439 21.1698C49.7047 21.7152 49.5351 22.3146 49.5351 23.0238C49.5351 23.733 49.7047 24.3324 50.0439 24.8778C50.3831 25.4241 50.8344 25.8048 51.3998 26.1324C51.9812 26.4115 52.6179 26.5606 53.2645 26.5689C53.6037 26.5689 53.9429 26.5149 54.2821 26.46C54.5648 26.406 54.8474 26.2962 55.1301 26.1324C55.6955 25.8057 56.1468 25.4232 56.486 24.9327C56.8252 24.3873 56.9948 23.787 56.9948 23.0787C56.9383 21.4425 56.0337 20.1879 54.5648 19.6425ZM55.0736 23.0238C55.0736 23.6241 54.8474 24.1146 54.4517 24.4422C54.169 24.7149 53.7733 24.8238 53.208 24.8238C52.7001 24.8238 52.3034 24.66 51.9651 24.4422C51.5694 24.1146 51.3998 23.6232 51.3432 23.0238C51.3432 22.3695 51.5694 21.7692 52.0782 21.3876C52.3608 21.1698 52.7001 21.0609 53.1523 21.0609C53.6037 21.0609 53.9429 21.1689 54.2256 21.3876C54.8474 21.7692 55.1301 22.3686 55.0736 23.0238ZM47.3311 19.9692C46.9919 19.6965 46.4831 19.5327 45.9178 19.4787H45.5786C44.788 19.4787 44.1661 19.8054 43.6008 20.4597L43.4877 20.5695H43.2616C43.092 20.3517 42.9233 20.133 42.6962 20.0241C42.3579 19.6965 41.9057 19.5327 41.3403 19.4787C40.4367 19.3698 39.7017 19.6425 39.0799 20.2968V19.5876H37.1586V26.3502H39.0799V22.752C39.0799 21.9879 39.1929 21.825 39.306 21.6063C39.5321 21.2247 39.9844 21.0069 40.4367 21.0069C40.8881 21.0069 41.3403 21.2247 41.5665 21.6063C41.7361 21.879 41.7361 22.2066 41.7361 22.5333V26.2971H43.7148V22.6971C43.7148 22.0428 43.8269 21.7701 43.94 21.5523C44.1661 21.1698 44.6184 21.0069 45.0707 21.0069C45.522 21.0069 45.9187 21.2796 46.1439 21.6063C46.257 21.825 46.3135 22.0977 46.3135 22.3155V26.3511H48.2348V22.2615C48.2348 21.879 48.1782 21.5523 48.1217 21.2247C48.0086 20.6793 47.726 20.2428 47.3311 19.9692ZM72.2536 24.2784C71.9709 24.5511 71.2925 25.0416 70.388 25.0965C69.6539 25.0965 69.0321 24.9327 68.6363 24.4962C68.4667 24.2784 68.2971 24.0597 68.2406 23.787H73.6095V23.733C73.666 23.4603 73.666 23.1876 73.666 22.9689C73.666 22.7511 73.6095 22.4244 73.4964 21.9879C73.2703 21.2238 72.818 20.6244 72.1971 20.1339C71.5187 19.6425 70.8402 19.4787 70.6706 19.4787C69.2573 19.2609 67.6752 19.8603 66.8847 21.1149C66.3193 21.9879 66.3193 22.8609 66.3759 23.1327C66.3759 23.4603 66.4324 24.4962 67.2804 25.3692C68.2406 26.4051 69.6539 26.46 70.1062 26.5149C72.0275 26.5689 73.3268 25.4232 73.6095 25.1514L72.2536 24.2784ZM68.919 21.4425C69.2017 21.2238 69.5409 21.1149 69.9922 21.1149C70.4445 21.1149 70.7837 21.2238 71.0664 21.4425C71.349 21.6603 71.5752 21.933 71.6883 22.3155H68.2415C68.3872 21.9717 68.6206 21.6709 68.919 21.4425Z" fill="white"/>
<path d="M23.8211 15.1704C19.4698 15.1704 16.0221 18.5517 16.0221 22.6962C16.0221 26.8416 19.5263 30.2229 23.8211 30.2229C28.1159 30.2229 31.6201 26.8416 31.6201 22.6962C31.6766 18.5517 28.1168 15.1704 23.8211 15.1704ZM23.8211 25.4781C22.2391 25.4781 20.8822 24.2235 20.8822 22.6971C20.8822 21.1698 22.1825 19.9152 23.8211 19.9152C25.4606 19.9152 26.76 21.1698 26.76 22.6962C26.7355 23.447 26.4142 24.1584 25.865 24.6783C25.3157 25.1982 24.5821 25.4853 23.8211 25.4781Z" fill="#8B3FFD"/>
<path d="M16.023 17.406V28.368H13.2528L9.69302 17.406H16.0221H16.023Z" fill="#8B3FFD"/>
</svg>
