<svg width="92" height="45" viewBox="0 0 92 45" fill="none" xmlns="http://www.w3.org/2000/svg">
<path fill-rule="evenodd" clip-rule="evenodd" d="M15.825 11.0709C16.1123 11.07 16.9648 10.9935 17.325 12.1959C17.5685 13.0059 17.956 14.3334 18.4867 16.1766H18.7037C19.2736 14.2326 19.6648 12.906 19.8782 12.1968C20.2429 10.9818 21.1547 11.0718 21.5195 11.0718H24.3334V19.7118H21.4657V14.6196H21.2733L19.6739 19.7109H17.5165L15.9171 14.616H15.7256V19.71H12.857V11.07L15.825 11.0709ZM28.4522 11.0709V16.1667H28.6802L30.626 11.9772C30.7285 11.7394 30.8909 11.5314 31.0977 11.3729C31.3046 11.2145 31.549 11.1108 31.8078 11.0718H34.5834V19.7118H31.6555V14.616H31.4266L29.52 18.8055C29.1425 19.6362 28.2999 19.7109 28.2999 19.7109H25.5243V11.0709H28.4522ZM44.704 15.1767C44.2955 16.3197 43.0125 17.1378 41.5928 17.1378H38.5226V19.7118H35.7378V15.1767H44.704Z" fill="#0F754E"/>
<path fill-rule="evenodd" clip-rule="evenodd" d="M41.7268 11.07H35.5919C35.7378 12.9942 37.4156 14.6412 39.1536 14.6412H44.8982C45.2292 13.0419 44.0876 11.0709 41.7277 11.0709L41.7268 11.07Z" fill="url(#paint0_linear_1_106)"/>
<path fill-rule="evenodd" clip-rule="evenodd" d="M20.9724 34.452H18.4466L16.5536 27.2178C16.4642 26.8848 16.2727 26.5905 15.9919 26.4528C15.2639 26.0838 14.4837 25.8253 13.6776 25.686V25.407H17.7454C18.3071 25.407 18.7283 25.8255 18.7985 26.3115L19.7806 31.5297L22.3046 25.407H24.7602L20.9724 34.452ZM26.1635 34.452H23.779L25.7413 25.407H28.1267L26.1635 34.452ZM31.2124 27.9135C31.2826 27.4275 31.7047 27.1485 32.1953 27.1485C32.9908 27.077 33.791 27.221 34.5096 27.5652L34.9308 25.6185C34.2388 25.3461 33.5011 25.2042 32.7561 25.2C30.4418 25.2 28.7577 26.4528 28.7577 28.1907C28.7577 29.5137 29.9504 30.2085 30.7929 30.6261C31.7047 31.0437 32.0549 31.3218 31.9847 31.7394C31.9847 32.3649 31.2826 32.6439 30.5823 32.6439C29.7397 32.6439 28.8981 32.4351 28.1267 32.0859L27.7063 34.0344C28.548 34.3818 29.4589 34.5222 30.3014 34.5222C32.8965 34.5906 34.5096 33.3396 34.5096 31.4613C34.5096 29.0952 31.2124 28.9566 31.2124 27.9135ZM42.8566 34.452L40.9627 25.407H38.9293C38.508 25.407 38.0867 25.686 37.9463 26.1027L34.4403 34.452H36.895L37.3846 33.1308H40.401L40.6818 34.452H42.8566ZM39.2794 27.8433L39.9806 31.2516H38.0165L39.2794 27.8433Z" fill="#1434CB"/>
<mask id="mask0_1_106" style="mask-type:luminance" maskUnits="userSpaceOnUse" x="51" y="11" width="31" height="23">
<path d="M51.975 11.0286H81.1539V33.3954H51.975V11.0286Z" fill="white"/>
</mask>
<g mask="url(#mask0_1_106)">
<path d="M57.2637 33.3468V31.8618C57.2637 31.2948 56.9135 30.9222 56.3117 30.9222C56.0108 30.9222 55.6835 31.0212 55.4591 31.3434C55.2841 31.0725 55.0324 30.9222 54.6558 30.9222C54.5187 30.9164 54.3824 30.9452 54.2598 31.0058C54.1371 31.0665 54.0321 31.1569 53.9546 31.2687V30.9717H53.4294V33.3468H53.9546V32.0346C53.9546 31.6143 54.1798 31.4154 54.53 31.4154C54.881 31.4154 55.0561 31.6377 55.0561 32.0346V33.3468H55.5813V32.0346C55.5813 31.6143 55.833 31.4154 56.1567 31.4154C56.5069 31.4154 56.6828 31.6377 56.6828 32.0346V33.3468H57.2637ZM65.0599 30.9708H64.2083V30.2535H63.6821V30.9717H63.2062V31.4415H63.6821V32.5305C63.6821 33.0759 63.9074 33.3954 64.5083 33.3954C64.7335 33.3954 64.9843 33.3207 65.1602 33.2226L65.008 32.7753C64.8722 32.8582 64.7153 32.9013 64.5557 32.8995C64.304 32.8995 64.2046 32.7501 64.2046 32.5053V31.4415H65.0572V30.9717H65.0608L65.0599 30.9708ZM69.5225 30.9195C69.2216 30.9195 69.021 31.0698 68.8951 31.2651V30.9681H68.369V33.3441H68.8951V32.0058C68.8951 31.6116 69.0702 31.3866 69.3967 31.3866C69.497 31.3866 69.6219 31.4127 69.7249 31.4352L69.8763 30.9402C69.7705 30.9195 69.6219 30.9195 69.5225 30.9195ZM62.7803 31.1679C62.5287 30.9942 62.1785 30.9195 61.8019 30.9195C61.2001 30.9195 60.7998 31.2165 60.7998 31.6863C60.7998 32.0814 61.1007 32.3055 61.6268 32.3775L61.8776 32.4045C62.1512 32.4531 62.3044 32.5278 62.3044 32.652C62.3044 32.8248 62.1019 32.949 61.7518 32.949C61.4647 32.9502 61.1843 32.8634 60.9494 32.7006L60.6977 33.0957C60.9721 33.2946 61.3487 33.3927 61.7253 33.3927C62.4265 33.3927 62.8287 33.0696 62.8287 32.6259C62.8287 32.2047 62.5022 31.9833 62.0034 31.9086L61.7518 31.8816C61.5275 31.8564 61.3515 31.8069 61.3515 31.6602C61.3515 31.4874 61.5275 31.3902 61.8047 31.3902C62.1056 31.3902 62.4065 31.5135 62.5578 31.5882L62.7803 31.1679ZM76.7652 30.9195C76.6389 30.9172 76.5142 30.9479 76.4039 31.0086C76.2935 31.0693 76.2014 31.1578 76.137 31.2651V30.9681H75.6109V33.3441H76.137V32.0058C76.137 31.6116 76.3121 31.3866 76.6385 31.3866C76.7388 31.3866 76.8637 31.4127 76.9668 31.4352L77.1181 30.9456C77.016 30.9195 76.8674 30.9195 76.7652 30.9195ZM70.0486 32.1588C70.0486 32.877 70.5501 33.3954 71.327 33.3954C71.6781 33.3954 71.9288 33.3207 72.1805 33.1245L71.9288 32.7033C71.7515 32.8458 71.5302 32.9242 71.3015 32.9256C70.8748 32.9256 70.5738 32.6286 70.5738 32.1588C70.5738 31.7124 70.8748 31.4154 71.3015 31.392C71.5258 31.392 71.7273 31.4676 71.9288 31.6143L72.1805 31.1931C71.9288 30.9951 71.6781 30.9231 71.327 30.9231C70.5501 30.9195 70.0486 31.4415 70.0486 32.1588ZM74.9106 32.1588V30.9708H74.3844V31.2678C74.2094 31.0464 73.9586 30.9222 73.6313 30.9222C72.9538 30.9222 72.4276 31.4415 72.4276 32.1588C72.4276 32.877 72.9538 33.3954 73.6313 33.3954C73.9823 33.3954 74.2331 33.2712 74.3844 33.0498V33.3468H74.9106V32.1588ZM72.9802 32.1588C72.9802 31.7385 73.2547 31.392 73.7069 31.392C74.1337 31.392 74.4346 31.7151 74.4346 32.1588C74.4346 32.58 74.1337 32.9256 73.7078 32.9256C73.2574 32.8995 72.9802 32.5764 72.9802 32.1588ZM66.6903 30.9195C65.9891 30.9195 65.4867 31.4145 65.4867 32.1561C65.4867 32.8995 65.9891 33.3927 66.7168 33.3927C67.0669 33.3927 67.417 33.2946 67.6942 33.0696L67.4435 32.6979C67.2425 32.8521 66.9968 32.9388 66.7423 32.9454C66.4158 32.9454 66.0912 32.796 66.0155 32.3784H67.7936V32.1795C67.8173 31.4145 67.3651 30.9195 66.6903 30.9195ZM66.6903 31.3659C67.0167 31.3659 67.242 31.5648 67.2921 31.9338H66.0393C66.0885 31.6143 66.3128 31.3659 66.6903 31.3659ZM79.7497 32.1588V30.033H79.2236V31.2696C79.0485 31.0473 78.7968 30.9231 78.4704 30.9231C77.7929 30.9231 77.2668 31.4424 77.2668 32.1597C77.2668 32.8779 77.7929 33.3963 78.4704 33.3963C78.8205 33.3963 79.0722 33.2721 79.2236 33.0507V33.3477H79.7497V32.1597V32.1588ZM77.8193 32.1588C77.8193 31.7385 78.0929 31.392 78.5461 31.392C78.9728 31.392 79.2737 31.7151 79.2737 32.1588C79.2737 32.58 78.9728 32.9256 78.5461 32.9256C78.0938 32.8995 77.8193 32.5764 77.8193 32.1588ZM60.2217 32.1588V30.9708H59.6965V31.2678C59.5205 31.0464 59.2697 30.9222 58.9424 30.9222C58.2649 30.9222 57.7388 31.4415 57.7388 32.1588C57.7388 32.877 58.2649 33.3954 58.9424 33.3954C59.2934 33.3954 59.5442 33.2712 59.6965 33.0498V33.3468H60.2217V32.1588ZM58.2685 32.1588C58.2685 31.7385 58.5421 31.392 58.9953 31.392C59.422 31.392 59.722 31.7151 59.722 32.1588C59.722 32.58 59.4211 32.9256 58.9953 32.9256C58.543 32.8995 58.2685 32.5764 58.2685 32.1588Z" fill="white"/>
<path d="M70.5009 12.9339H62.6043V26.937H70.5009V12.9339Z" fill="#FF5A00"/>
<path d="M63.1305 19.935C63.1309 18.588 63.4401 17.2585 64.0348 16.0461C64.6294 14.8337 65.4943 13.7697 66.5645 12.9339C64.9792 11.6987 63.0182 11.0274 60.9986 11.0286C59.8134 11.0279 58.6397 11.2578 57.5446 11.7051C56.4494 12.1524 55.4544 12.8085 54.6163 13.6356C53.7783 14.4628 53.1136 15.4449 52.6604 16.5258C52.2072 17.6067 51.9743 18.7652 51.975 19.935C51.9743 21.1048 52.2072 22.2633 52.6604 23.3442C53.1136 24.4251 53.7783 25.4072 54.6163 26.2344C55.4544 27.0615 56.4494 27.7175 57.5446 28.1649C58.6397 28.6122 59.8134 28.8421 60.9986 28.8414C63.0183 28.8427 64.9793 28.1714 66.5645 26.9361C65.4918 26.1024 64.6253 25.0389 64.0304 23.826C63.4354 22.6131 63.1277 21.2826 63.1305 19.935Z" fill="#EB001B"/>
<path d="M81.1539 19.935C81.1547 21.1048 80.9218 22.2633 80.4685 23.3442C80.0153 24.4251 79.3507 25.4072 78.5126 26.2344C77.6745 27.0615 76.6795 27.7175 75.5844 28.1649C74.4893 28.6122 73.3156 28.8421 72.1304 28.8414C70.1108 28.8428 68.1498 28.1718 66.5645 26.937C67.6388 26.1048 68.5066 25.0416 69.1017 23.8284C69.6968 22.6151 70.0035 21.2838 69.9985 19.9359C69.9981 18.5887 69.6891 17.2591 69.0944 16.0465C68.4997 14.8339 67.6348 13.7698 66.5645 12.9339C68.1482 11.6985 70.1081 11.0271 72.1267 11.0286C77.1181 11.0286 81.1539 15.0381 81.1539 19.935Z" fill="#F79E1B"/>
</g>
<defs>
<linearGradient id="paint0_linear_1_106" x1="44.9538" y1="13.3164" x2="35.5919" y2="13.3164" gradientUnits="userSpaceOnUse">
<stop stop-color="#1F5CD7"/>
<stop offset="1" stop-color="#02AEFF"/>
</linearGradient>
</defs>
</svg>
