<svg width="191" height="37" viewBox="0 0 191 37" fill="none" xmlns="http://www.w3.org/2000/svg">
<path d="M23.1567 4.50974C18.8509 4.55283 14.651 5.84982 11.0706 8.24208V4.87816H0.562378V36.2427H11.0706V26.5113C14.6837 28.7928 18.8841 29.9703 23.1567 29.8993C31.3022 29.8993 38.2062 27.6166 38.2062 17.2045C38.2062 6.79239 31.3502 4.50974 23.1567 4.50974ZM19.6726 22.779C15.9643 22.779 12.6164 21.6016 11.0706 19.6714V14.9299C12.7125 12.9516 16.3247 11.638 19.6726 11.638C24.0617 11.638 28.0824 12.8715 28.0824 17.2446C28.0824 21.6176 24.1338 22.8511 19.6726 22.8511" fill="white"/>
<path d="M142.552 19.351C141.286 21.9941 137.69 22.7389 135.343 22.7389H134.839C132.732 22.7389 127.759 22.3705 127.759 17.1885C127.759 12.0064 132.732 11.646 134.839 11.646H135.343C137.802 11.646 141.302 12.4469 142.552 15.066L152.395 13.2719C150.257 6.06352 142.119 4.54175 135.712 4.54175H134.486C128.311 4.54175 117.258 6.3038 117.258 17.2205C117.258 28.4336 128.311 29.9073 134.486 29.9073H135.712C142.119 29.9073 150.225 28.2093 152.387 21.097L142.552 19.351Z" fill="white"/>
<path d="M178.273 4.60586C169.759 4.60586 165.851 7.96978 164.345 9.47553V-0.00750732H153.837V29.2906H164.345V17.3167C164.345 16.2594 167.156 12.5511 172.426 12.5511C176.031 12.5511 180.492 13.7605 180.492 20.4964C180.492 26.9038 180.492 29.3066 180.492 29.3066H191V17.9093C191 11.7422 187.796 4.60586 178.265 4.60586" fill="white"/>
<path d="M71.6609 29.2586L75.177 20.2721H69.0739L80.0867 5.30267H66.4228V17.1885C66.4228 18.2457 63.6115 21.9941 58.3414 21.9941C54.7372 21.9941 50.276 20.7847 50.276 14.0489C50.276 7.64139 50.276 5.34272 50.276 5.34272H39.7598V16.6038C39.7598 22.763 42.9635 29.8993 52.4946 29.8993C61.0085 29.8993 64.917 26.5354 66.4228 25.0296V29.2586H71.6609Z" fill="white"/>
<path d="M103.258 4.6059C94.7359 4.6059 90.8354 7.96981 89.3216 9.47556V5.31072H83.1064L80.5914 14.2972H86.6945L74.4563 29.2906H89.3216V17.3167C89.3216 16.2595 92.1329 12.5511 97.403 12.5511C101.015 12.5511 105.468 13.7606 105.468 20.4964C105.468 26.9038 105.468 29.3066 105.468 29.3066H115.977V17.9094C115.977 11.7422 112.773 4.6059 103.25 4.6059" fill="white"/>
</svg>
