<svg width="372" height="372" viewBox="0 0 372 372" fill="none" xmlns="http://www.w3.org/2000/svg">
<g clip-path="url(#clip0_7_1147)">
<path fill-rule="evenodd" clip-rule="evenodd" d="M181.967 0.0430476C184.655 -0.0146747 187.345 -0.0146747 190.033 0.0430476L186.061 185.001L186 185L185.939 185.001L181.967 0.0430476ZM214.186 2.13505C216.874 2.54505 219.546 3.01305 222.199 3.53805L186.296 185.021L186.267 185.016L214.186 2.13505ZM149.801 3.53805C152.454 3.01305 155.126 2.54505 157.814 2.13505L185.733 185.016L185.714 185.019L185.704 185.021L149.801 3.53805ZM245.793 9.84605C248.371 10.721 250.922 11.65 253.447 12.633L186.351 185.036L186.338 185.032L245.793 9.84605ZM118.553 12.633C121.084 11.6479 123.635 10.7186 126.207 9.84605L185.662 185.032L185.649 185.036L118.553 12.633ZM275.543 22.953C277.915 24.257 280.258 25.6126 282.571 27.019L186.451 185.088L186.417 185.068L275.543 22.953ZM89.429 27.018C91.7418 25.6114 94.085 24.2554 96.457 22.951L185.583 185.067L185.549 185.087L89.429 27.018ZM302.468 40.973C304.571 42.6635 306.638 44.3993 308.666 46.179L186.633 185.223C186.617 185.209 186.6 185.195 186.583 185.181L302.468 40.973ZM63.334 46.18C65.3621 44.4001 67.4286 42.6643 69.532 40.974L185.417 185.181C185.4 185.195 185.383 185.209 185.367 185.223L63.334 46.18ZM325.82 63.334C327.6 65.3623 329.336 67.4288 331.026 69.532L186.819 185.417C186.805 185.4 186.791 185.383 186.777 185.367L325.82 63.334ZM40.974 69.532C42.6643 67.4286 44.4001 65.3622 46.18 63.334L185.223 185.367C185.209 185.383 185.195 185.4 185.181 185.417L40.974 69.532ZM344.982 89.43C346.388 91.743 347.744 94.0862 349.048 96.458L186.932 185.584L186.912 185.55L344.982 89.43ZM22.952 96.458C24.2559 94.086 25.6116 91.7428 27.018 89.43L185.088 185.55L185.068 185.584L22.952 96.458ZM359.367 118.554C360.352 121.085 361.281 123.637 362.154 126.208L186.968 185.663L186.964 185.65L359.367 118.554ZM9.846 126.207C10.7188 123.636 11.648 121.084 12.633 118.553L185.036 185.649C185.035 185.652 185.034 185.654 185.034 185.657L185.032 185.662L9.846 126.207ZM368.462 149.801C368.987 152.454 369.455 155.126 369.865 157.814L186.984 185.733L186.979 185.704L368.462 149.801ZM2.135 157.814C2.545 155.126 3.013 152.454 3.538 149.801L185.021 185.704L185.016 185.733L2.135 157.814ZM371.957 181.967C372.015 184.655 372.015 187.345 371.957 190.033L186.999 186.061L187 186V185.968L186.999 185.939L371.957 181.967ZM4.91382e-07 186C4.91382e-07 184.654 0.0140005 183.31 0.0430005 181.967L185.001 185.939L185 186L185.001 186.061L0.0430005 190.033C0.0142374 188.689 -9.6746e-05 187.344 4.91382e-07 186ZM3.538 222.199C3.01186 219.539 2.54408 216.867 2.135 214.186L185.016 186.267L185.018 186.282L185.021 186.296L3.538 222.199ZM369.865 214.186C369.455 216.874 368.987 219.546 368.462 222.199L186.979 186.296L186.984 186.267L369.865 214.186ZM12.633 253.447C11.6478 250.917 10.7186 248.365 9.846 245.793L185.032 186.338L185.033 186.342L185.036 186.351L12.633 253.447ZM362.154 245.793C361.281 248.365 360.352 250.916 359.367 253.447L186.964 186.351L186.968 186.338L362.154 245.793ZM27.019 282.571C25.6123 280.258 24.2563 277.915 22.952 275.543L185.068 186.417L185.088 186.451L27.019 282.571ZM349.048 275.543C347.744 277.915 346.388 280.258 344.982 282.571L186.912 186.451L186.932 186.417L349.048 275.543ZM46.18 308.666C44.4002 306.638 42.6645 304.571 40.974 302.468L185.181 186.583C185.195 186.6 185.209 186.617 185.223 186.633L46.18 308.666ZM331.026 302.468C329.336 304.571 327.6 306.638 325.82 308.666L186.777 186.633C186.791 186.617 186.805 186.6 186.819 186.583L331.026 302.468ZM69.532 331.026C67.4285 329.336 65.362 327.6 63.334 325.82L185.367 186.777C185.383 186.791 185.4 186.805 185.417 186.819L69.532 331.026ZM308.666 325.82C306.638 327.6 304.571 329.335 302.468 331.026L186.583 186.819L186.609 186.797C186.617 186.791 186.625 186.784 186.633 186.777L308.666 325.82ZM96.457 349.048C94.0852 347.744 91.742 346.388 89.429 344.982L185.549 186.912L185.583 186.932L96.457 349.048ZM282.571 344.982C280.258 346.388 277.915 347.744 275.543 349.048L186.417 186.932L186.433 186.922C186.439 186.919 186.445 186.916 186.451 186.912L282.571 344.982ZM126.207 362.154C123.636 361.281 121.084 360.352 118.553 359.367L185.649 186.964L185.662 186.968L126.207 362.154ZM253.447 359.367C250.917 360.352 248.365 361.282 245.793 362.154L186.338 186.968L186.351 186.964L253.447 359.367ZM157.814 369.865C155.126 369.455 152.454 368.987 149.801 368.462L185.704 186.979L185.733 186.984L157.814 369.865ZM222.199 368.462C219.546 368.987 216.874 369.455 214.186 369.865L186.267 186.984L186.284 186.981L186.296 186.979L222.199 368.462ZM186 372C184.654 372 183.31 371.986 181.967 371.957L185.939 186.999L186 187L186.061 186.999L190.033 371.957C188.69 371.986 187.346 372 186 372Z" fill="url(#paint0_linear_7_1147)"/>
</g>
<defs>
<linearGradient id="paint0_linear_7_1147" x1="186" y1="-0.000244141" x2="186" y2="280" gradientUnits="userSpaceOnUse">
<stop stop-color="white"/>
<stop offset="0.790322" stop-color="white" stop-opacity="0"/>
</linearGradient>
<clipPath id="clip0_7_1147">
<rect width="372" height="372" fill="white"/>
</clipPath>
</defs>
</svg>
